# xmcd
#
# Track frame offsets: 
#        150
#        15917
#        28247
#        39576
#        49571
#        64562
#        84408
#        98577
#        111292
#        129064
#        147768
#        160689
#        182292
#        195277
#        211803
#
# Disc length: 3021 seconds
#
# Revision: 2
# Processed by: cddbd v1.5.2PL0 Copyright (c) Steve Scherf et al.
# Submitted via: ExactAudioCopy v0.99pb5
#
DISCID=a90bcb0f
DTITLE=Glenn Miller - [CD 02-10] - I Know That You Know
DYEAR=1900
DGENRE=Jazz
TTITLE0=Don't Wake Up My Heart  [1938]
TTITLE1=My Best Wishes  [1938]
TTITLE2=I Know That You Know  [1938]
TTITLE3=Sugar Foot Stomp  [1938]
TTITLE4=When Paw Was Courtin' Maw  [1938]
TTITLE5=Mutiny In The Nursery  [1939]
TTITLE6=Sold American  [1939]
TTITLE7=Please Come Out Of Your Dream  [1939]
TTITLE8=Poinciana  [1939]
TTITLE9=Oh, Baby  [1939]
TTITLE10=Don't Worry, Bout Me  [1939]
TTITLE11=Song Of The Bayou  [1939]
TTITLE12=The Moon Is A Silver Dollar  [1939]
TTITLE13=The Masquerade Is Over  [1939]
TTITLE14=Our Love  [1939]
EXTD=
EXTT0=
EXTT1=
EXTT2=
EXTT3=
EXTT4=
EXTT5=
EXTT6=
EXTT7=
EXTT8=
EXTT9=
EXTT10=
EXTT11=
EXTT12=
EXTT13=
EXTT14=
PLAYORDER=
